<svg width="214" height="348" viewBox="0 0 214 348" fill="none" xmlns="http://www.w3.org/2000/svg">
<path d="M72.1476 7.89813C70.4556 7.89813 69.0839 6.34641 69.0839 4.43231C69.0839 2.51821 70.4556 0.966492 72.1476 0.966492C73.8397 0.966492 75.2113 2.51821 75.2113 4.43231C75.2113 6.34641 73.8397 7.89813 72.1476 7.89813Z" fill="#E5E5E5"/>
<path d="M72.147 33.9954C70.455 33.9954 69.0833 32.4436 69.0833 30.5295C69.0833 28.6154 70.455 27.0637 72.147 27.0637C73.8391 27.0637 75.2108 28.6154 75.2108 30.5295C75.2108 32.4436 73.8391 33.9954 72.147 33.9954Z" fill="#E5E5E5"/>
<path d="M72.147 60.0971C70.455 60.0971 69.0833 58.5453 69.0833 56.6312C69.0833 54.7171 70.455 53.1654 72.147 53.1654C73.8391 53.1654 75.2108 54.7171 75.2108 56.6312C75.2108 58.5453 73.8391 60.0971 72.147 60.0971Z" fill="#E5E5E5"/>
<path d="M72.147 86.1943C70.455 86.1943 69.0833 84.6426 69.0833 82.7285C69.0833 80.8144 70.455 79.2626 72.147 79.2626C73.8391 79.2626 75.2108 80.8144 75.2108 82.7285C75.2108 84.6426 73.8391 86.1943 72.147 86.1943Z" fill="#E5E5E5"/>
<path d="M72.147 112.292C70.455 112.292 69.0833 110.74 69.0833 108.826C69.0833 106.912 70.455 105.36 72.147 105.36C73.8391 105.36 75.2108 106.912 75.2108 108.826C75.2108 110.74 73.8391 112.292 72.147 112.292Z" fill="#E5E5E5"/>
<path d="M72.147 138.389C70.455 138.389 69.0833 136.837 69.0833 134.923C69.0833 133.009 70.455 131.457 72.147 131.457C73.8391 131.457 75.2108 133.009 75.2108 134.923C75.2108 136.837 73.8391 138.389 72.147 138.389Z" fill="#E5E5E5"/>
<path d="M72.147 164.49C70.455 164.49 69.0833 162.939 69.0833 161.025C69.0833 159.11 70.455 157.559 72.147 157.559C73.8391 157.559 75.2108 159.11 75.2108 161.025C75.2108 162.939 73.8391 164.49 72.147 164.49Z" fill="#E5E5E5"/>
<path d="M72.147 190.588C70.455 190.588 69.0833 189.036 69.0833 187.122C69.0833 185.208 70.455 183.656 72.147 183.656C73.8391 183.656 75.2108 185.208 75.2108 187.122C75.2108 189.036 73.8391 190.588 72.147 190.588Z" fill="#E5E5E5"/>
<path d="M72.147 216.689C70.455 216.689 69.0833 215.138 69.0833 213.224C69.0833 211.309 70.455 209.758 72.147 209.758C73.8391 209.758 75.2108 211.309 75.2108 213.224C75.2108 215.138 73.8391 216.689 72.147 216.689Z" fill="#E5E5E5"/>
<path d="M72.147 242.787C70.455 242.787 69.0833 241.235 69.0833 239.321C69.0833 237.407 70.455 235.855 72.147 235.855C73.8391 235.855 75.2108 237.407 75.2108 239.321C75.2108 241.235 73.8391 242.787 72.147 242.787Z" fill="#E5E5E5"/>
<path d="M72.147 268.884C70.455 268.884 69.0833 267.332 69.0833 265.418C69.0833 263.504 70.455 261.952 72.147 261.952C73.8391 261.952 75.2108 263.504 75.2108 265.418C75.2108 267.332 73.8391 268.884 72.147 268.884Z" fill="#E5E5E5"/>
<path d="M72.147 294.981C70.455 294.981 69.0833 293.429 69.0833 291.515C69.0833 289.601 70.455 288.049 72.147 288.049C73.8391 288.049 75.2108 289.601 75.2108 291.515C75.2108 293.429 73.8391 294.981 72.147 294.981Z" fill="#E5E5E5"/>
<path d="M72.147 321.083C70.455 321.083 69.0833 319.531 69.0833 317.617C69.0833 315.703 70.455 314.151 72.147 314.151C73.8391 314.151 75.2108 315.703 75.2108 317.617C75.2108 319.531 73.8391 321.083 72.147 321.083Z" fill="#E5E5E5"/>
<path d="M72.147 347.18C70.455 347.18 69.0833 345.628 69.0833 343.714C69.0833 341.8 70.455 340.248 72.147 340.248C73.8391 340.248 75.2108 341.8 75.2108 343.714C75.2108 345.628 73.8391 347.18 72.147 347.18Z" fill="#E5E5E5"/>
<path d="M37.6052 7.89813C35.9132 7.89813 34.5415 6.34641 34.5415 4.43231C34.5415 2.51821 35.9132 0.966492 37.6052 0.966492C39.2973 0.966492 40.669 2.51821 40.669 4.43231C40.669 6.34641 39.2973 7.89813 37.6052 7.89813Z" fill="#E5E5E5"/>
<path d="M37.6052 33.9954C35.9132 33.9954 34.5415 32.4436 34.5415 30.5295C34.5415 28.6154 35.9132 27.0637 37.6052 27.0637C39.2973 27.0637 40.669 28.6154 40.669 30.5295C40.669 32.4436 39.2973 33.9954 37.6052 33.9954Z" fill="#E5E5E5"/>
<path d="M37.6052 60.0971C35.9132 60.0971 34.5415 58.5453 34.5415 56.6312C34.5415 54.7171 35.9132 53.1654 37.6052 53.1654C39.2973 53.1654 40.669 54.7171 40.669 56.6312C40.669 58.5453 39.2973 60.0971 37.6052 60.0971Z" fill="#E5E5E5"/>
<path d="M37.6052 86.1943C35.9132 86.1943 34.5415 84.6426 34.5415 82.7285C34.5415 80.8144 35.9132 79.2626 37.6052 79.2626C39.2973 79.2626 40.669 80.8144 40.669 82.7285C40.669 84.6426 39.2973 86.1943 37.6052 86.1943Z" fill="#E5E5E5"/>
<path d="M37.6052 112.292C35.9132 112.292 34.5415 110.74 34.5415 108.826C34.5415 106.912 35.9132 105.36 37.6052 105.36C39.2973 105.36 40.669 106.912 40.669 108.826C40.669 110.74 39.2973 112.292 37.6052 112.292Z" fill="#E5E5E5"/>
<path d="M37.6052 138.389C35.9132 138.389 34.5415 136.837 34.5415 134.923C34.5415 133.009 35.9132 131.457 37.6052 131.457C39.2973 131.457 40.669 133.009 40.669 134.923C40.669 136.837 39.2973 138.389 37.6052 138.389Z" fill="#E5E5E5"/>
<path d="M37.6052 164.49C35.9132 164.49 34.5415 162.939 34.5415 161.025C34.5415 159.11 35.9132 157.559 37.6052 157.559C39.2973 157.559 40.669 159.11 40.669 161.025C40.669 162.939 39.2973 164.49 37.6052 164.49Z" fill="#E5E5E5"/>
<path d="M37.6052 190.588C35.9132 190.588 34.5415 189.036 34.5415 187.122C34.5415 185.208 35.9132 183.656 37.6052 183.656C39.2973 183.656 40.669 185.208 40.669 187.122C40.669 189.036 39.2973 190.588 37.6052 190.588Z" fill="#E5E5E5"/>
<path d="M37.6052 216.689C35.9132 216.689 34.5415 215.138 34.5415 213.224C34.5415 211.309 35.9132 209.758 37.6052 209.758C39.2973 209.758 40.669 211.309 40.669 213.224C40.669 215.138 39.2973 216.689 37.6052 216.689Z" fill="#E5E5E5"/>
<path d="M37.6052 242.787C35.9132 242.787 34.5415 241.235 34.5415 239.321C34.5415 237.407 35.9132 235.855 37.6052 235.855C39.2973 235.855 40.669 237.407 40.669 239.321C40.669 241.235 39.2973 242.787 37.6052 242.787Z" fill="#E5E5E5"/>
<path d="M37.6052 268.884C35.9132 268.884 34.5415 267.332 34.5415 265.418C34.5415 263.504 35.9132 261.952 37.6052 261.952C39.2973 261.952 40.669 263.504 40.669 265.418C40.669 267.332 39.2973 268.884 37.6052 268.884Z" fill="#E5E5E5"/>
<path d="M37.6052 294.981C35.9132 294.981 34.5415 293.429 34.5415 291.515C34.5415 289.601 35.9132 288.049 37.6052 288.049C39.2973 288.049 40.669 289.601 40.669 291.515C40.669 293.429 39.2973 294.981 37.6052 294.981Z" fill="#E5E5E5"/>
<path d="M37.6052 321.083C35.9132 321.083 34.5415 319.531 34.5415 317.617C34.5415 315.703 35.9132 314.151 37.6052 314.151C39.2973 314.151 40.669 315.703 40.669 317.617C40.669 319.531 39.2973 321.083 37.6052 321.083Z" fill="#E5E5E5"/>
<path d="M37.6052 347.18C35.9132 347.18 34.5415 345.628 34.5415 343.714C34.5415 341.8 35.9132 340.248 37.6052 340.248C39.2973 340.248 40.669 341.8 40.669 343.714C40.669 345.628 39.2973 347.18 37.6052 347.18Z" fill="#E5E5E5"/>
<path d="M3.06409 7.89821C1.37205 7.89821 0.000366211 6.34648 0.000366211 4.43238C0.000366211 2.51828 1.37205 0.966553 3.06409 0.966553C4.75612 0.966553 6.12781 2.51828 6.12781 4.43238C6.12781 6.34648 4.75612 7.89821 3.06409 7.89821Z" fill="#E5E5E5"/>
<path d="M3.06374 33.9954C1.37169 33.9954 0 32.4436 0 30.5295C0 28.6154 1.37169 27.0637 3.06374 27.0637C4.75579 27.0637 6.12748 28.6154 6.12748 30.5295C6.12748 32.4436 4.75579 33.9954 3.06374 33.9954Z" fill="#E5E5E5"/>
<path d="M3.06374 60.0971C1.37169 60.0971 0 58.5454 0 56.6312C0 54.7171 1.37169 53.1654 3.06374 53.1654C4.75579 53.1654 6.12748 54.7171 6.12748 56.6312C6.12748 58.5454 4.75579 60.0971 3.06374 60.0971Z" fill="#E5E5E5"/>
<path d="M3.06374 86.1943C1.37169 86.1943 0 84.6426 0 82.7285C0 80.8143 1.37169 79.2626 3.06374 79.2626C4.75579 79.2626 6.12748 80.8143 6.12748 82.7285C6.12748 84.6426 4.75579 86.1943 3.06374 86.1943Z" fill="#E5E5E5"/>
<path d="M3.06374 112.292C1.37169 112.292 0 110.74 0 108.826C0 106.912 1.37169 105.36 3.06374 105.36C4.75579 105.36 6.12748 106.912 6.12748 108.826C6.12748 110.74 4.75579 112.292 3.06374 112.292Z" fill="#E5E5E5"/>
<path d="M3.06374 138.389C1.37169 138.389 0 136.837 0 134.923C0 133.009 1.37169 131.457 3.06374 131.457C4.75579 131.457 6.12748 133.009 6.12748 134.923C6.12748 136.837 4.75579 138.389 3.06374 138.389Z" fill="#E5E5E5"/>
<path d="M3.06374 164.49C1.37169 164.49 0 162.939 0 161.025C0 159.11 1.37169 157.559 3.06374 157.559C4.75579 157.559 6.12748 159.11 6.12748 161.025C6.12748 162.939 4.75579 164.49 3.06374 164.49Z" fill="#E5E5E5"/>
<path d="M3.06374 190.588C1.37169 190.588 0 189.036 0 187.122C0 185.208 1.37169 183.656 3.06374 183.656C4.75579 183.656 6.12748 185.208 6.12748 187.122C6.12748 189.036 4.75579 190.588 3.06374 190.588Z" fill="#E5E5E5"/>
<path d="M3.06374 216.689C1.37169 216.689 0 215.138 0 213.224C0 211.309 1.37169 209.758 3.06374 209.758C4.75579 209.758 6.12748 211.309 6.12748 213.224C6.12748 215.138 4.75579 216.689 3.06374 216.689Z" fill="#E5E5E5"/>
<path d="M3.06374 242.787C1.37169 242.787 0 241.235 0 239.321C0 237.407 1.37169 235.855 3.06374 235.855C4.75579 235.855 6.12748 237.407 6.12748 239.321C6.12748 241.235 4.75579 242.787 3.06374 242.787Z" fill="#E5E5E5"/>
<path d="M3.06374 268.884C1.37169 268.884 0 267.332 0 265.418C0 263.504 1.37169 261.952 3.06374 261.952C4.75579 261.952 6.12748 263.504 6.12748 265.418C6.12748 267.332 4.75579 268.884 3.06374 268.884Z" fill="#E5E5E5"/>
<path d="M3.06374 294.981C1.37169 294.981 0 293.429 0 291.515C0 289.601 1.37169 288.049 3.06374 288.049C4.75579 288.049 6.12748 289.601 6.12748 291.515C6.12748 293.429 4.75579 294.981 3.06374 294.981Z" fill="#E5E5E5"/>
<path d="M3.06374 321.083C1.37169 321.083 0 319.531 0 317.617C0 315.703 1.37169 314.151 3.06374 314.151C4.75579 314.151 6.12748 315.703 6.12748 317.617C6.12748 319.531 4.75579 321.083 3.06374 321.083Z" fill="#E5E5E5"/>
<path d="M3.06374 347.18C1.37169 347.18 0 345.628 0 343.714C0 341.8 1.37169 340.248 3.06374 340.248C4.75579 340.248 6.12748 341.8 6.12748 343.714C6.12748 345.628 4.75579 347.18 3.06374 347.18Z" fill="#E5E5E5"/>
<path d="M106.689 7.89813C104.997 7.89813 103.625 6.34641 103.625 4.43231C103.625 2.51821 104.997 0.966492 106.689 0.966492C108.381 0.966492 109.752 2.51821 109.752 4.43231C109.752 6.34641 108.381 7.89813 106.689 7.89813Z" fill="#E5E5E5"/>
<path d="M106.689 33.9954C104.996 33.9954 103.625 32.4436 103.625 30.5295C103.625 28.6154 104.996 27.0637 106.689 27.0637C108.381 27.0637 109.752 28.6154 109.752 30.5295C109.752 32.4436 108.381 33.9954 106.689 33.9954Z" fill="#E5E5E5"/>
<path d="M106.689 60.0971C104.996 60.0971 103.625 58.5453 103.625 56.6312C103.625 54.7171 104.996 53.1654 106.689 53.1654C108.381 53.1654 109.752 54.7171 109.752 56.6312C109.752 58.5453 108.381 60.0971 106.689 60.0971Z" fill="#E5E5E5"/>
<path d="M106.689 86.1943C104.996 86.1943 103.625 84.6426 103.625 82.7285C103.625 80.8144 104.996 79.2626 106.689 79.2626C108.381 79.2626 109.752 80.8144 109.752 82.7285C109.752 84.6426 108.381 86.1943 106.689 86.1943Z" fill="#E5E5E5"/>
<path d="M106.689 112.292C104.996 112.292 103.625 110.74 103.625 108.826C103.625 106.912 104.996 105.36 106.689 105.36C108.381 105.36 109.752 106.912 109.752 108.826C109.752 110.74 108.381 112.292 106.689 112.292Z" fill="#E5E5E5"/>
<path d="M106.689 138.389C104.996 138.389 103.625 136.837 103.625 134.923C103.625 133.009 104.996 131.457 106.689 131.457C108.381 131.457 109.752 133.009 109.752 134.923C109.752 136.837 108.381 138.389 106.689 138.389Z" fill="#E5E5E5"/>
<path d="M106.689 164.49C104.996 164.49 103.625 162.939 103.625 161.025C103.625 159.11 104.996 157.559 106.689 157.559C108.381 157.559 109.752 159.11 109.752 161.025C109.752 162.939 108.381 164.49 106.689 164.49Z" fill="#E5E5E5"/>
<path d="M106.689 190.588C104.996 190.588 103.625 189.036 103.625 187.122C103.625 185.208 104.996 183.656 106.689 183.656C108.381 183.656 109.752 185.208 109.752 187.122C109.752 189.036 108.381 190.588 106.689 190.588Z" fill="#E5E5E5"/>
<path d="M106.689 216.689C104.996 216.689 103.625 215.138 103.625 213.224C103.625 211.309 104.996 209.758 106.689 209.758C108.381 209.758 109.752 211.309 109.752 213.224C109.752 215.138 108.381 216.689 106.689 216.689Z" fill="#E5E5E5"/>
<path d="M106.689 242.787C104.996 242.787 103.625 241.235 103.625 239.321C103.625 237.407 104.996 235.855 106.689 235.855C108.381 235.855 109.752 237.407 109.752 239.321C109.752 241.235 108.381 242.787 106.689 242.787Z" fill="#E5E5E5"/>
<path d="M106.689 268.884C104.996 268.884 103.625 267.332 103.625 265.418C103.625 263.504 104.996 261.952 106.689 261.952C108.381 261.952 109.752 263.504 109.752 265.418C109.752 267.332 108.381 268.884 106.689 268.884Z" fill="#E5E5E5"/>
<path d="M106.689 294.981C104.996 294.981 103.625 293.429 103.625 291.515C103.625 289.601 104.996 288.049 106.689 288.049C108.381 288.049 109.752 289.601 109.752 291.515C109.752 293.429 108.381 294.981 106.689 294.981Z" fill="#E5E5E5"/>
<path d="M106.689 321.083C104.996 321.083 103.625 319.531 103.625 317.617C103.625 315.703 104.996 314.151 106.689 314.151C108.381 314.151 109.752 315.703 109.752 317.617C109.752 319.531 108.381 321.083 106.689 321.083Z" fill="#E5E5E5"/>
<path d="M106.689 347.18C104.996 347.18 103.625 345.628 103.625 343.714C103.625 341.8 104.996 340.248 106.689 340.248C108.381 340.248 109.752 341.8 109.752 343.714C109.752 345.628 108.381 347.18 106.689 347.18Z" fill="#E5E5E5"/>
<path d="M141.23 7.89813C139.538 7.89813 138.166 6.34641 138.166 4.43231C138.166 2.51821 139.538 0.966492 141.23 0.966492C142.922 0.966492 144.294 2.51821 144.294 4.43231C144.294 6.34641 142.922 7.89813 141.23 7.89813Z" fill="#E5E5E5"/>
<path d="M141.23 33.9954C139.538 33.9954 138.167 32.4436 138.167 30.5295C138.167 28.6154 139.538 27.0637 141.23 27.0637C142.922 27.0637 144.294 28.6154 144.294 30.5295C144.294 32.4436 142.922 33.9954 141.23 33.9954Z" fill="#E5E5E5"/>
<path d="M141.23 60.0971C139.538 60.0971 138.167 58.5453 138.167 56.6312C138.167 54.7171 139.538 53.1654 141.23 53.1654C142.922 53.1654 144.294 54.7171 144.294 56.6312C144.294 58.5453 142.922 60.0971 141.23 60.0971Z" fill="#E5E5E5"/>
<path d="M141.23 86.1943C139.538 86.1943 138.167 84.6426 138.167 82.7285C138.167 80.8144 139.538 79.2626 141.23 79.2626C142.922 79.2626 144.294 80.8144 144.294 82.7285C144.294 84.6426 142.922 86.1943 141.23 86.1943Z" fill="#E5E5E5"/>
<path d="M141.23 112.292C139.538 112.292 138.167 110.74 138.167 108.826C138.167 106.912 139.538 105.36 141.23 105.36C142.922 105.36 144.294 106.912 144.294 108.826C144.294 110.74 142.922 112.292 141.23 112.292Z" fill="#E5E5E5"/>
<path d="M141.23 138.389C139.538 138.389 138.167 136.837 138.167 134.923C138.167 133.009 139.538 131.457 141.23 131.457C142.922 131.457 144.294 133.009 144.294 134.923C144.294 136.837 142.922 138.389 141.23 138.389Z" fill="#E5E5E5"/>
<path d="M141.23 164.49C139.538 164.49 138.167 162.939 138.167 161.025C138.167 159.11 139.538 157.559 141.23 157.559C142.922 157.559 144.294 159.11 144.294 161.025C144.294 162.939 142.922 164.49 141.23 164.49Z" fill="#E5E5E5"/>
<path d="M141.23 190.588C139.538 190.588 138.167 189.036 138.167 187.122C138.167 185.208 139.538 183.656 141.23 183.656C142.922 183.656 144.294 185.208 144.294 187.122C144.294 189.036 142.922 190.588 141.23 190.588Z" fill="#E5E5E5"/>
<path d="M141.23 216.689C139.538 216.689 138.167 215.138 138.167 213.224C138.167 211.309 139.538 209.758 141.23 209.758C142.922 209.758 144.294 211.309 144.294 213.224C144.294 215.138 142.922 216.689 141.23 216.689Z" fill="#E5E5E5"/>
<path d="M141.23 242.787C139.538 242.787 138.167 241.235 138.167 239.321C138.167 237.407 139.538 235.855 141.23 235.855C142.922 235.855 144.294 237.407 144.294 239.321C144.294 241.235 142.922 242.787 141.23 242.787Z" fill="#E5E5E5"/>
<path d="M141.23 268.884C139.538 268.884 138.167 267.332 138.167 265.418C138.167 263.504 139.538 261.952 141.23 261.952C142.922 261.952 144.294 263.504 144.294 265.418C144.294 267.332 142.922 268.884 141.23 268.884Z" fill="#E5E5E5"/>
<path d="M141.23 294.981C139.538 294.981 138.167 293.429 138.167 291.515C138.167 289.601 139.538 288.049 141.23 288.049C142.922 288.049 144.294 289.601 144.294 291.515C144.294 293.429 142.922 294.981 141.23 294.981Z" fill="#E5E5E5"/>
<path d="M141.23 321.083C139.538 321.083 138.167 319.531 138.167 317.617C138.167 315.703 139.538 314.151 141.23 314.151C142.922 314.151 144.294 315.703 144.294 317.617C144.294 319.531 142.922 321.083 141.23 321.083Z" fill="#E5E5E5"/>
<path d="M141.23 347.18C139.538 347.18 138.167 345.628 138.167 343.714C138.167 341.8 139.538 340.248 141.23 340.248C142.922 340.248 144.294 341.8 144.294 343.714C144.294 345.628 142.922 347.18 141.23 347.18Z" fill="#E5E5E5"/>
<path d="M175.772 7.89813C174.08 7.89813 172.708 6.34641 172.708 4.43231C172.708 2.51821 174.08 0.966492 175.772 0.966492C177.464 0.966492 178.836 2.51821 178.836 4.43231C178.836 6.34641 177.464 7.89813 175.772 7.89813Z" fill="#E5E5E5"/>
<path d="M175.772 33.9954C174.08 33.9954 172.708 32.4436 172.708 30.5295C172.708 28.6154 174.08 27.0637 175.772 27.0637C177.464 27.0637 178.836 28.6154 178.836 30.5295C178.836 32.4436 177.464 33.9954 175.772 33.9954Z" fill="#E5E5E5"/>
<path d="M175.772 60.0971C174.08 60.0971 172.708 58.5453 172.708 56.6312C172.708 54.7171 174.08 53.1654 175.772 53.1654C177.464 53.1654 178.836 54.7171 178.836 56.6312C178.836 58.5453 177.464 60.0971 175.772 60.0971Z" fill="#E5E5E5"/>
<path d="M175.772 86.1943C174.08 86.1943 172.708 84.6426 172.708 82.7285C172.708 80.8144 174.08 79.2626 175.772 79.2626C177.464 79.2626 178.836 80.8144 178.836 82.7285C178.836 84.6426 177.464 86.1943 175.772 86.1943Z" fill="#E5E5E5"/>
<path d="M175.772 112.292C174.08 112.292 172.708 110.74 172.708 108.826C172.708 106.912 174.08 105.36 175.772 105.36C177.464 105.36 178.836 106.912 178.836 108.826C178.836 110.74 177.464 112.292 175.772 112.292Z" fill="#E5E5E5"/>
<path d="M175.772 138.389C174.08 138.389 172.708 136.837 172.708 134.923C172.708 133.009 174.08 131.457 175.772 131.457C177.464 131.457 178.836 133.009 178.836 134.923C178.836 136.837 177.464 138.389 175.772 138.389Z" fill="#E5E5E5"/>
<path d="M175.772 164.49C174.08 164.49 172.708 162.939 172.708 161.025C172.708 159.11 174.08 157.559 175.772 157.559C177.464 157.559 178.836 159.11 178.836 161.025C178.836 162.939 177.464 164.49 175.772 164.49Z" fill="#E5E5E5"/>
<path d="M175.772 190.588C174.08 190.588 172.708 189.036 172.708 187.122C172.708 185.208 174.08 183.656 175.772 183.656C177.464 183.656 178.836 185.208 178.836 187.122C178.836 189.036 177.464 190.588 175.772 190.588Z" fill="#E5E5E5"/>
<path d="M175.772 216.689C174.08 216.689 172.708 215.138 172.708 213.224C172.708 211.309 174.08 209.758 175.772 209.758C177.464 209.758 178.836 211.309 178.836 213.224C178.836 215.138 177.464 216.689 175.772 216.689Z" fill="#E5E5E5"/>
<path d="M175.772 242.787C174.08 242.787 172.708 241.235 172.708 239.321C172.708 237.407 174.08 235.855 175.772 235.855C177.464 235.855 178.836 237.407 178.836 239.321C178.836 241.235 177.464 242.787 175.772 242.787Z" fill="#E5E5E5"/>
<path d="M175.772 268.884C174.08 268.884 172.708 267.332 172.708 265.418C172.708 263.504 174.08 261.952 175.772 261.952C177.464 261.952 178.836 263.504 178.836 265.418C178.836 267.332 177.464 268.884 175.772 268.884Z" fill="#E5E5E5"/>
<path d="M175.772 294.981C174.08 294.981 172.708 293.429 172.708 291.515C172.708 289.601 174.08 288.049 175.772 288.049C177.464 288.049 178.836 289.601 178.836 291.515C178.836 293.429 177.464 294.981 175.772 294.981Z" fill="#E5E5E5"/>
<path d="M175.772 321.083C174.08 321.083 172.708 319.531 172.708 317.617C172.708 315.703 174.08 314.151 175.772 314.151C177.464 314.151 178.836 315.703 178.836 317.617C178.836 319.531 177.464 321.083 175.772 321.083Z" fill="#E5E5E5"/>
<path d="M175.772 347.18C174.08 347.18 172.708 345.628 172.708 343.714C172.708 341.8 174.08 340.248 175.772 340.248C177.464 340.248 178.836 341.8 178.836 343.714C178.836 345.628 177.464 347.18 175.772 347.18Z" fill="#E5E5E5"/>
<path d="M210.313 7.89813C208.621 7.89813 207.25 6.34641 207.25 4.43231C207.25 2.51821 208.621 0.966492 210.313 0.966492C212.005 0.966492 213.377 2.51821 213.377 4.43231C213.377 6.34641 212.005 7.89813 210.313 7.89813Z" fill="#E5E5E5"/>
<path d="M210.313 33.9954C208.621 33.9954 207.25 32.4436 207.25 30.5295C207.25 28.6154 208.621 27.0637 210.313 27.0637C212.006 27.0637 213.377 28.6154 213.377 30.5295C213.377 32.4436 212.006 33.9954 210.313 33.9954Z" fill="#E5E5E5"/>
<path d="M210.313 60.0971C208.621 60.0971 207.25 58.5453 207.25 56.6312C207.25 54.7171 208.621 53.1654 210.313 53.1654C212.006 53.1654 213.377 54.7171 213.377 56.6312C213.377 58.5453 212.006 60.0971 210.313 60.0971Z" fill="#E5E5E5"/>
<path d="M210.313 86.1943C208.621 86.1943 207.25 84.6426 207.25 82.7285C207.25 80.8144 208.621 79.2626 210.313 79.2626C212.006 79.2626 213.377 80.8144 213.377 82.7285C213.377 84.6426 212.006 86.1943 210.313 86.1943Z" fill="#E5E5E5"/>
<path d="M210.313 112.292C208.621 112.292 207.25 110.74 207.25 108.826C207.25 106.912 208.621 105.36 210.313 105.36C212.006 105.36 213.377 106.912 213.377 108.826C213.377 110.74 212.006 112.292 210.313 112.292Z" fill="#E5E5E5"/>
<path d="M210.313 138.389C208.621 138.389 207.25 136.837 207.25 134.923C207.25 133.009 208.621 131.457 210.313 131.457C212.006 131.457 213.377 133.009 213.377 134.923C213.377 136.837 212.006 138.389 210.313 138.389Z" fill="#E5E5E5"/>
<path d="M210.313 164.49C208.621 164.49 207.25 162.939 207.25 161.025C207.25 159.11 208.621 157.559 210.313 157.559C212.006 157.559 213.377 159.11 213.377 161.025C213.377 162.939 212.006 164.49 210.313 164.49Z" fill="#E5E5E5"/>
<path d="M210.313 190.588C208.621 190.588 207.25 189.036 207.25 187.122C207.25 185.208 208.621 183.656 210.313 183.656C212.006 183.656 213.377 185.208 213.377 187.122C213.377 189.036 212.006 190.588 210.313 190.588Z" fill="#E5E5E5"/>
<path d="M210.313 216.689C208.621 216.689 207.25 215.138 207.25 213.224C207.25 211.309 208.621 209.758 210.313 209.758C212.006 209.758 213.377 211.309 213.377 213.224C213.377 215.138 212.006 216.689 210.313 216.689Z" fill="#E5E5E5"/>
<path d="M210.313 242.787C208.621 242.787 207.25 241.235 207.25 239.321C207.25 237.407 208.621 235.855 210.313 235.855C212.006 235.855 213.377 237.407 213.377 239.321C213.377 241.235 212.006 242.787 210.313 242.787Z" fill="#E5E5E5"/>
<path d="M210.313 268.884C208.621 268.884 207.25 267.332 207.25 265.418C207.25 263.504 208.621 261.952 210.313 261.952C212.006 261.952 213.377 263.504 213.377 265.418C213.377 267.332 212.006 268.884 210.313 268.884Z" fill="#E5E5E5"/>
<path d="M210.313 294.981C208.621 294.981 207.25 293.429 207.25 291.515C207.25 289.601 208.621 288.049 210.313 288.049C212.006 288.049 213.377 289.601 213.377 291.515C213.377 293.429 212.006 294.981 210.313 294.981Z" fill="#E5E5E5"/>
<path d="M210.313 321.083C208.621 321.083 207.25 319.531 207.25 317.617C207.25 315.703 208.621 314.151 210.313 314.151C212.006 314.151 213.377 315.703 213.377 317.617C213.377 319.531 212.006 321.083 210.313 321.083Z" fill="#E5E5E5"/>
<path d="M210.313 347.18C208.621 347.18 207.25 345.628 207.25 343.714C207.25 341.8 208.621 340.248 210.313 340.248C212.006 340.248 213.377 341.8 213.377 343.714C213.377 345.628 212.006 347.18 210.313 347.18Z" fill="#E5E5E5"/>
</svg>
