<?xml version="1.0" standalone="no"?>
<!DOCTYPE svg PUBLIC "-//W3C//DTD SVG 20010904//EN"
 "http://www.w3.org/TR/2001/REC-SVG-20010904/DTD/svg10.dtd">
<svg version="1.0" xmlns="http://www.w3.org/2000/svg"
 width="700.000000pt" height="700.000000pt" viewBox="0 0 700.000000 700.000000"
 preserveAspectRatio="xMidYMid meet">
<metadata>
Created by potrace 1.11, written by Peter Selinger 2001-2013
</metadata>
<g transform="translate(0.000000,700.000000) scale(0.100000,-0.100000)"
fill="#000000" stroke="none">
<path d="M897 4802 c3 -9 9 -21 13 -27 4 -5 14 -28 23 -50 8 -22 40 -93 71
-157 31 -64 76 -162 100 -217 25 -54 76 -166 114 -248 65 -139 82 -174 152
-328 15 -33 43 -94 63 -135 19 -41 57 -124 85 -185 28 -60 73 -159 101 -218
28 -60 51 -110 51 -112 0 -2 20 -45 44 -97 69 -146 186 -399 186 -403 0 -1 23
-52 51 -111 28 -60 94 -201 146 -314 150 -327 167 -360 174 -352 6 6 137 287
397 852 83 180 398 865 429 930 19 41 69 149 110 240 42 91 95 206 118 255 42
89 174 375 235 510 17 39 44 96 59 127 l27 57 -1377 0 c-1293 0 -1378 -1
-1372 -17z m2499 -145 c3 -3 -15 -48 -40 -101 -26 -54 -46 -99 -46 -100 0 -2
-24 -55 -54 -117 -30 -63 -95 -204 -146 -314 -51 -110 -176 -380 -278 -600
-179 -387 -228 -495 -277 -600 -173 -376 -278 -601 -284 -608 -4 -4 -50 84
-101 195 -51 112 -109 237 -128 278 -19 41 -47 102 -62 135 -16 33 -41 89 -58
125 -16 36 -43 94 -60 130 -91 199 -160 347 -203 438 -27 57 -49 106 -49 108
0 2 -17 41 -39 86 -209 449 -431 939 -428 945 5 8 2245 8 2253 0z"/>
<path d="M3873 4812 l-23 -3 0 -1460 0 -1460 758 4 c416 2 768 6 782 10 14 4
39 9 55 12 239 46 475 250 564 489 86 230 60 476 -69 669 -86 128 -208 234
-341 297 -33 15 -59 32 -57 37 1 4 27 24 58 44 161 105 285 290 318 474 9 52
9 230 0 275 -4 19 -10 44 -12 55 -27 129 -141 302 -255 388 -148 113 -287 160
-492 167 -120 4 -1260 6 -1286 2z"/>
</g>
</svg>
